<svg xmlns="http://www.w3.org/2000/svg" xmlns:xlink="http://www.w3.org/1999/xlink" version="1.1" id="Layer_1" x="0px" y="0px" width="936.33px" height="155.71px" viewBox="0 0 936.33 155.71" enable-background="new 0 0 936.33 155.71" xml:space="preserve">
  <path fill="#3D3D3D" d="M532.39 0.36c8.35 0 17.11 4.44 17.11 19.18 0 11.57-6.53 19.17-17.11 19.17 -10 0-16.73-7.13-16.73-19.17C515.66 6.75 524.02 0.36 532.39 0.36"/>
  <path fill="#3D3D3D" d="M506.63 145.98c9.7 0 9.9-5.39 9.9-13.61V73.02c0-7.79-2.63-10.37-9.9-10.37v-6.21l41.4-8.18v84.1c0 8.22 0.2 13.61 7.87 13.61v7.01h-49.27L506.63 145.98"/>
  <path fill="#3D3D3D" d="M25.77 0.26c8.35 0 17.11 4.44 17.11 19.18 0 11.57-6.53 19.17-17.11 19.17 -10 0-16.74-7.13-16.74-19.17C9.03 6.65 17.39 0.26 25.77 0.26"/>
  <path fill="#3D3D3D" d="M139.62 145.88c8.48-0.43 10.3-1.51 10.3-19.22V81.78c0-17.72-1.83-18.79-10.3-19.22v-6.21l40.58-8.18v19.02c8.69-10.81 17.17-17.72 31.1-17.72 12.32 0 20.17 4.1 25.03 16.62 8.69-9.28 16.55-16.62 29.48-16.62 16.54 0 25.84 9.94 25.84 27.64v49.56c0 17.71 1.63 18.79 9.7 19.22v7.01h-49.88v-7.01c6.26 0.21 8.67-0.21 8.67-15.55v-42c0-14.05 0.8-23.97-9.68-23.97 -6.47 0-13.93 9.07-13.93 12.95v53.02c-0.2 15.33 1.81 15.76 8.07 15.55v7.01h-48.25v-7.01c6.27 0.21 8.67-0.21 8.67-15.55v-42c0-14.05 0.8-23.97-9.67-23.97 -6.47 0-13.93 9.07-13.93 12.95v53.02c0 15.33 1.8 15.76 8.06 15.55v7.01H139.6v-7.02"/>
  <path fill="#3D3D3D" d="M354.1 99.38c-0.18 1.05-1.87 1.22-3.88 2.02 -8.83 3.63-16.32 10.62-16.32 22.14 0 6.03 1.61 15.55 8.87 15.55 6.07 0 11.51-3.03 11.33-12.3L354.1 99.38M385.59 134.13c0 3.67 0 8.63 4.86 8.63 1.61 0 2.81-0.43 4.01-1.28l2.41-1.7v4.51l-2.41 2.15c-6.25 5.39-14.12 9.28-21.58 9.28 -8.9 0-15.16-4.53-18.19-13.38 -8.08 7.35-18.56 13.38-29.48 13.38 -13.91 0-22.79-7.35-22.79-22.02 0-22.94 29.97-34.25 48.74-40.33 0.38-0.11 2.95-0.98 2.95-5.5V73.65c0-12.95-2.54-17.92-11.21-17.92 -9.75 0-8.99 9.56-8.99 23.74 0 8.87-7.07 14.48-15.14 14.48 -8.49 0-13.53-7.11-13.53-15.56 0-21.79 23.81-28.92 40.58-28.92 22.43 0 39.77 5.39 39.77 32.6V134.13z"/>
  <path fill="#3D3D3D" d="M397.8 145.88c8.07-0.43 9.68-1.51 9.68-19.22V82.4c0-17.72-1.61-18.79-9.68-19.25v-6.8l40.58-8.18v17.92h0.4c3.63-5.82 11.91-16.62 28.07-16.62 17.15 0 26.64 10.13 26.64 28.28v48.92c0 17.71 1.61 18.79 9.27 19.22v7.01h-48.42v-7.01c6.04-0.43 7.67-1.51 7.67-19.22V85.95c0-13.59-0.4-21.58-9.29-21.58 -6.47 0-13.74 6.89-13.74 13.17v49.13c0 17.71 1.63 18.79 7.67 19.22v7.01H397.8V145.88"/>
  <path fill="#3D3D3D" d="M0 145.88c9.7 0 9.9-5.39 9.9-13.61V72.93c0-7.79-2.63-10.37-9.9-10.37v-6.21l41.4-8.18v84.1c0 8.22 0.2 13.61 7.87 13.61v7.01H0V145.88"/>
  <path fill="#3D3D3D" d="M53.76 145.88c9.69 0 9.87-5.39 9.87-13.61V25.02c0-7.77-2.61-10.38-9.87-10.38V8.45l41.4-8.18v132.01c0 8.22 0.18 13.61 7.85 13.61v7.01H53.76V145.88"/>
  <path fill="#3D3D3D" d="M560.96 145.88c9.69 0 11.5-1.95 11.5-19.22V64.37h-11.5v-9.95h11.5V34.56c0-22.9 15.97-34.56 36.16-34.56 13.12 0 28.63 6.71 28.63 23.11 0 7.99-5.21 13.4-12.48 13.4 -7.1 0-11.33-5.2-11.33-12.76 0-4.31 1.4-7.15 5.53-9.54 5.04-2.88 1.04-7.61-6.34-7.93 -22.92-1.08-8.67 16.54-8.67 38.87v9.27h16.95v9.95h-16.95v62.29c0 16.62 5.44 19.22 16.95 19.22v7.01h-59.95V145.88"/>
  <path fill="#3D3D3D" d="M673.57 92.23c0-22.04 0.8-36.5-11.71-36.5 -14.73 0-14.33 25.26-14.73 36.5H673.57M647.33 99.79c-0.4 18.34 7.04 38.23 26.64 38.23 14.94 0 22.01-11.88 24.41-15.77l4.46 2.79c-0.81 2.82-2.63 6.7-4.46 9.28 -9.27 14.26-21.18 21.4-37.55 21.4 -30.67 0-45.21-24.4-45.21-54.42 0-29.15 17.37-51.83 46.24-51.83 15.74 0 31.48 9.71 36.94 25.92 3.23 9.28 3.81 16.41 3.41 24.4H647.33z"/>
  <path fill="#3D3D3D" d="M709.71 118.36h4.05c2.41 13.38 12.71 31.1 27.05 31.1 7.65 0 15.13-3.89 15.13-12.97 0-5.61-2.83-9.06-5.86-11.46 -4.03-3.24-8.08-5.38-15.94-9.49l-8.69-5.17c-9.9-6.28-16.75-16-16.75-28.74 0-19.65 12.71-32.17 30.88-32.17 7.89 0 12.31 1.07 15.56 2.36 3.22 1.1 5.04 2.38 7.05 2.38 2.85 0 4.63-2.38 4.63-4.74h4.24v32.6h-3.41c-2.21-12.51-11.31-26.33-24.23-26.33 -6.24 0-13.11 3.87-13.11 11.88 0 10.35 11.3 14.02 22.81 20.08 11.3 6.03 22.63 14.23 22.63 33.89 0 21.17-14.36 34.12-33.74 34.12 -10.5 0-19.17-4.96-22.81-4.96 -2.63 0-4.63 2.6-5.26 4.96h-4.23L709.71 118.36"/>
  <path fill="#3D3D3D" d="M819.71 132.82c-0.4 6.91 0.41 9.08 4.44 9.08 5.26 0 8.89-8.21 9.5-9.31l4.23 2.6c-6.47 14.48-14.16 20.51-29.27 20.51 -7.9 0-20.4-3.25-20.4-21.58V64.37h-10.9V55.8c17.52-3.45 30.95-20.48 34.87-40.9h7.53v39.52h16.77v9.95h-16.77L819.71 132.82"/>
  <path fill="#3D3D3D" d="M902.8 88.13c-0.4-14.05-1.2-32.39-15.33-32.39 -14.34 0-14.76 18.34-15.16 32.39v28.92c0.4 14.05 0.82 32.41 15.16 32.41 14.13 0 14.93-18.36 15.33-32.41V88.13M887.47 49.47c28.25 0 48.87 22.23 48.87 53.11 0 30.91-20.62 53.14-48.87 53.14 -28.08 0-48.65-22.23-48.65-53.14C838.82 71.7 859.39 49.47 887.47 49.47z"/>
  <path fill="#3D3D3D" d="M172.89 35.8c1.66 0 2.87-0.45 3.92-1.8V40h5.28V21.55h-4.83v2.1c-0.91-1.65-2.27-2.4-4.38-2.4 -3.78 0-5.89 3.45-5.89 7.05C167 33.24 169.87 35.8 172.89 35.8zM174.7 25.3c1.66 0 2.27 1.65 2.27 3.15 0 1.35-0.75 3.15-2.27 3.15 -1.97 0-2.42-1.65-2.42-3.3C172.29 26.8 173.05 25.3 174.7 25.3z"/>
  <path fill="#3D3D3D" d="M189.5 35.8c2.27 0 3.47-0.45 4.83-2.4v1.95h4.83V21.7h-5.28v6.6c0 2.1-0.45 3.3-1.97 3.3 -1.36 0-1.97-0.6-1.97-2.55v-7.34h-5.28v8.4C184.67 34 186.63 35.8 189.5 35.8z"/>
  <path fill="#3D3D3D" d="M208.98 35.64c4.38 0 7.7-2.25 7.7-7.34 0-4.2-3.02-7.04-7.7-7.04 -4.53 0-7.55 2.7-7.7 7.34C201.29 33.24 204.6 35.64 208.98 35.64zM208.98 24.85c1.36-0.15 2.27 1.5 2.27 3.45 0 2.7-0.75 3.75-2.27 3.75 -1.36 0-2.27-1.2-2.27-3.75C206.72 26.8 207.32 24.85 208.98 24.85z"/>
  <path fill="#3D3D3D" d="M219.85 30.54c0 4.65 0.91 5.25 7.85 4.8V31.44h-0.91c-1.51 0-1.66-0.45-1.66-1.65v-4.95h2.56v-3.15h-2.56v-4.2h-5.28v4.2h-1.97v3.15h1.97V30.54L219.85 30.54z"/>
  <rect x="230.57" y="16" fill="#3D3D3D" width="5.28" height="3.9"/>
  <rect x="230.57" y="21.7" fill="#3D3D3D" width="5.28" height="13.64"/>
  <path fill="#3D3D3D" d="M244.62 35.8c1.66 0 2.87-0.6 4.08-2.25v1.8 0.15h4.83V16.6h-5.28v6.45c-1.06-1.35-2.27-1.8-3.92-1.8 -3.33 0-5.74 3-5.74 7.5C238.58 32.65 240.54 35.8 244.62 35.8zM245.98 25.45c1.81 0 2.27 1.65 2.27 3.15 0 1.65-0.61 3.15-2.42 3.3 -1.81 0-2.11-1.65-2.11-3.15C243.72 27.25 244.17 25.45 245.98 25.45z"/>
  <rect x="256.25" y="21.7" fill="#3D3D3D" width="5.28" height="13.64"/>
  <rect x="256.25" y="16" fill="#3D3D3D" width="5.28" height="3.9"/>
  <path fill="#3D3D3D" d="M263.8 31.44c0 2.85 2.27 4.2 4.83 4.2 1.97 0 3.47-0.3 4.99-1.8l0.3 1.5h5.58v-0.3c-0.75-0.6-0.75-1.05-0.75-1.8v-6.45c0-3.3-0.45-5.69-6.8-5.69 -5.44 0-7.39 1.8-7.39 4.65h5.13c0-1.2 1.06-1.35 1.81-1.35 0.61 0 1.81 0 1.81 1.05C273.32 28 263.8 25.15 263.8 31.44zM273.46 29.19c0.16 1.95-0.61 3.45-2.42 3.45 -1.06 0-1.66-0.45-1.66-1.2C269.38 29.64 271.65 30.09 273.46 29.19z"/>
  <path fill="#3D3D3D" d="M286.9 28.44c0-1.8 0.45-2.85 2.11-2.85 1.51 0 1.81 1.2 1.81 2.55v7.2h5.28v-8.24c0-3.75-1.66-5.85-5.13-5.85 -1.97 0-3.33 0.9-4.53 2.55v-2.1h-4.83V35.49h5.28V28.44L286.9 28.44z"/>
  <path fill="#3D3D3D" d="M305.93 35.64c4.38 0 7.7-2.25 7.7-7.34 0-4.2-3.02-7.04-7.7-7.04 -4.53 0-7.55 2.7-7.7 7.34C298.23 33.24 301.54 35.64 305.93 35.64zM305.93 24.85c1.36-0.15 2.27 1.5 2.27 3.45 0 2.7-0.75 3.75-2.27 3.75 -1.36 0-2.27-1.2-2.27-3.75C303.67 26.8 304.26 24.85 305.93 24.85z"/>
  <path fill="#3D3D3D" d="M331.6 35.64c1.97 0 3.63-0.45 4.99-1.35 1.36-0.9 2.27-2.25 2.56-4.35h-5.44c-0.15 1.2-0.75 2.1-2.11 2.1 -1.51 0-2.27-1.35-2.27-3.45 0-1.65 0.3-3.75 2.27-3.75 0.61 0 1.06 0.3 1.36 0.6 0.3 0.3 0.61 0.75 0.61 1.35v0.15H339c-0.45-4.2-3.78-5.69-7.4-5.69 -4.53 0-7.7 2.7-7.7 7.34C323.9 33.1 327.22 35.64 331.6 35.64z"/>
  <path fill="#3D3D3D" d="M348.66 35.64c4.38 0 7.7-2.25 7.7-7.34 0-4.2-3.02-7.04-7.7-7.04 -4.53 0-7.55 2.7-7.7 7.34C340.96 33.24 344.28 35.64 348.66 35.64zM348.66 24.85c1.36-0.15 2.27 1.5 2.27 3.45 0 2.7-0.75 3.75-2.27 3.75 -1.36 0-2.27-1.2-2.27-3.75C346.39 26.8 347 24.85 348.66 24.85z"/>
  <path fill="#3D3D3D" d="M363.91 35.19v-6.75c0-1.65 0.3-3 1.81-3 1.36 0 1.81 0.9 1.81 2.85v7.05h5.28v-6.75c0-1.65 0.3-3 1.81-3 1.36 0 1.81 0.9 1.81 2.85v7.05h5.28v-8.1c0-3.75-1.2-6-5.13-6 -1.97 0-3.47 0.9-4.67 2.55 -0.61-1.5-1.97-2.55-4.38-2.55 -1.97 0-3.62 1.35-4.23 2.4v-2.1h-4.67v13.5h5.27V35.19z"/>
  <path fill="#3D3D3D" d="M388.98 35.8c2.27 0 3.47-0.45 4.83-2.4v1.95h4.83V21.7h-5.28v6.6c0 2.1-0.45 3.3-1.97 3.3 -1.36 0-1.97-0.6-1.97-2.55v-7.34h-5.28v8.4C384.15 34 386.11 35.8 388.98 35.8z"/>
  <path fill="#3D3D3D" d="M406.5 28.44c0-1.8 0.45-2.85 2.11-2.85 1.51 0 1.81 1.2 1.81 2.55v7.2h5.28v-8.24c0-3.75-1.66-5.85-5.14-5.85 -1.97 0-3.33 0.9-4.53 2.55v-2.1h-4.83V35.49h5.28L406.5 28.44 406.5 28.44z"/>
  <rect x="418.72" y="21.7" fill="#3D3D3D" width="5.28" height="13.64"/>
  <rect x="418.72" y="16" fill="#3D3D3D" width="5.28" height="3.9"/>
  <path fill="#3D3D3D" d="M433.52 32.79c-0.61 0-1.06-0.15-1.36-0.45 -0.45-0.3-0.61-0.6-0.61-1.2h-5.14c0.3 3.75 3.78 4.64 6.8 4.64 4.99 0 7.25-1.95 7.25-4.8 0-5.1-8.45-3.75-8.45-5.69 0-0.6 0.61-0.9 1.51-0.9 0.45 0 0.75 0 1.06 0.3 0.16 0.3 0.45 0.6 0.45 1.05h4.83c-0.3-3.6-3.78-4.35-6.64-4.35 -2.72 0-6.34 1.05-6.34 4.5 0 5.25 8.3 3.45 8.3 5.7C435.19 32.49 434.28 32.79 433.52 32.79z"/>
  <path fill="#3D3D3D" d="M443.65 30.54c0 4.65 0.91 5.25 7.85 4.8V31.44h-0.91c-1.51 0-1.66-0.45-1.66-1.65v-4.95h2.56v-3.15h-2.56v-4.2h-5.28v4.2h-1.97v3.15h1.97V30.54L443.65 30.54z"/>
  <path fill="#3D3D3D" d="M453.31 31.44c0 2.85 2.27 4.2 4.83 4.2 1.97 0 3.47-0.3 4.99-1.8l0.3 1.5H469v-0.3c-0.75-0.6-0.75-1.05-0.75-1.8v-6.45c0-3.3-0.45-5.69-6.8-5.69 -5.44 0-7.4 1.8-7.4 4.65h5.14c0-1.2 1.06-1.35 1.81-1.35 0.61 0 1.81 0 1.81 1.05C462.82 28 453.31 25.15 453.31 31.44zM462.98 29.19c0.16 1.95-0.45 3.45-2.42 3.45 -1.06 0-1.66-0.45-1.66-1.2C458.9 29.64 461.16 30.09 462.98 29.19z"/>
</svg>